<?xml version="1.0" encoding="UTF-8" ?>
<!DOCTYPE svg PUBLIC "-//W3C//DTD SVG 1.1//EN" "http://www.w3.org/Graphics/SVG/1.1/DTD/svg11.dtd">
<svg width="1059pt" height="347pt" viewBox="0 0 1059 347" version="1.1" xmlns="http://www.w3.org/2000/svg">
<g id="#88e977ff">
<path fill="#88e977" opacity="1.00" d=" M 101.80 33.27 C 128.73 33.18 155.66 33.02 182.59 33.06 C 185.35 40.55 180.24 47.67 180.16 55.17 C 178.18 60.34 177.21 65.82 176.16 71.24 C 174.00 76.73 172.86 82.57 171.76 88.36 C 169.50 92.55 169.21 97.44 167.86 101.95 C 166.94 106.77 164.51 111.60 165.91 116.57 C 163.35 116.98 163.20 119.40 163.08 121.51 L 163.00 121.95 C 161.91 122.85 161.58 123.96 162.00 125.29 L 162.13 125.98 C 160.95 126.82 160.59 127.93 161.04 129.31 L 161.09 129.99 C 160.13 131.02 159.17 132.47 159.81 133.92 L 160.07 134.98 C 158.81 135.57 158.41 136.54 158.87 137.88 L 159.15 138.98 C 157.83 139.55 157.44 140.56 157.95 142.02 C 158.03 142.42 158.18 143.22 158.26 143.62 C 158.48 145.69 159.12 147.80 158.48 149.86 C 157.29 155.28 156.02 160.69 154.84 166.11 C 154.12 166.13 152.69 166.17 151.98 166.20 C 151.61 167.55 151.26 168.90 150.92 170.26 C 147.18 184.11 143.68 198.03 139.95 211.89 C 139.35 213.70 139.48 215.62 139.91 217.46 C 140.01 218.09 140.21 219.35 140.31 219.98 C 139.46 226.36 137.86 232.63 136.76 238.98 C 135.57 238.99 134.39 239.01 133.20 239.03 C 131.46 246.32 129.61 253.58 127.83 260.86 C 126.61 261.65 126.25 262.73 126.75 264.09 L 126.91 264.84 C 125.71 265.60 125.32 266.66 125.75 268.03 L 125.87 268.92 C 124.67 269.64 124.26 270.64 124.65 271.92 C 124.98 273.28 125.32 274.64 125.68 276.00 C 125.28 276.21 124.46 276.64 124.06 276.85 C 122.77 277.55 122.40 278.63 122.96 280.09 L 123.16 280.98 C 121.82 281.53 121.41 282.53 121.94 283.99 L 122.13 284.96 C 120.81 285.52 120.40 286.54 120.90 288.01 L 121.03 288.89 C 120.79 289.46 120.31 290.59 120.07 291.15 L 120.21 291.96 C 119.02 292.79 118.64 293.89 119.07 295.27 L 119.18 295.96 C 117.98 296.77 117.60 297.87 118.05 299.25 L 118.16 299.97 C 116.90 300.72 116.50 301.79 116.96 303.17 L 117.17 304.07 C 115.80 304.59 115.41 305.57 115.99 307.02 C 116.08 307.41 116.28 308.20 116.38 308.59 C 117.27 311.65 117.35 314.84 117.25 318.00 C 85.25 317.90 53.24 317.87 21.24 317.72 C 19.82 314.54 18.38 311.37 17.00 308.18 C 45.30 216.56 73.60 124.93 101.80 33.27 Z" />
<path fill="#88e977" opacity="1.00" d=" M 826.64 34.00 C 868.48 34.00 910.31 34.00 952.15 34.00 C 962.83 72.68 973.63 111.33 984.23 150.03 C 984.14 154.23 981.97 158.16 980.92 162.21 C 936.00 162.26 891.08 162.07 846.16 162.00 C 845.23 154.98 845.27 147.87 844.14 140.87 C 843.32 134.97 842.32 129.10 841.07 123.28 C 839.53 116.72 838.67 110.02 837.02 103.49 L 836.95 103.09 C 837.52 101.57 837.29 99.83 836.02 98.74 C 835.99 98.38 835.93 97.66 835.90 97.31 C 836.38 95.77 836.19 94.07 835.12 92.83 L 835.07 92.30 C 834.34 84.99 832.21 77.89 831.13 70.62 C 831.10 69.99 831.06 68.73 831.03 68.09 C 831.52 66.60 831.11 65.59 829.79 65.04 C 829.89 64.54 830.08 63.53 830.17 63.03 C 830.67 61.59 829.87 60.19 829.21 58.96 C 828.94 57.72 828.79 56.47 828.40 55.26 C 828.00 53.22 827.60 51.20 827.14 49.18 C 825.88 44.19 825.55 39.05 826.64 34.00 Z" />
<path fill="#88e977" opacity="1.00" d=" M 724.44 69.90 C 735.91 69.61 747.38 69.85 758.86 69.77 C 759.85 76.15 760.52 82.57 761.43 88.97 C 758.67 89.02 755.91 89.11 753.17 89.33 C 744.14 89.04 735.12 89.11 726.10 89.25 C 725.66 82.79 725.05 76.35 724.44 69.90 Z" />
<path fill="#88e977" opacity="1.00" d=" M 245.14 89.24 C 256.50 89.21 267.86 89.35 279.22 89.42 C 282.13 98.97 274.02 108.53 277.29 117.99 L 276.28 118.03 C 275.93 119.84 275.65 121.67 275.35 123.49 C 274.85 121.65 274.29 119.83 273.77 118.00 C 267.46 117.94 261.15 117.88 254.84 117.79 C 254.49 119.85 254.15 121.91 253.87 123.97 C 249.89 123.95 245.92 123.89 241.96 123.79 C 241.11 119.26 239.16 114.62 240.54 110.01 C 242.11 103.09 243.67 96.18 245.14 89.24 Z" />
<path fill="#88e977" opacity="1.00" d=" M 352.01 118.19 C 362.06 117.77 372.12 118.08 382.17 117.97 C 384.08 117.99 385.99 118.01 387.91 118.04 C 387.97 120.10 388.00 122.15 388.05 124.21 C 387.86 133.96 388.57 143.93 385.90 153.44 C 374.08 153.57 362.27 153.81 350.45 154.01 C 349.52 142.04 350.64 130.08 352.01 118.19 Z" />
<path fill="#88e977" opacity="1.00" d=" M 830.40 193.83 C 837.85 194.07 845.31 194.09 852.76 194.42 C 853.69 198.20 854.52 202.02 855.05 205.89 C 854.51 207.28 854.86 208.37 856.11 209.18 C 856.06 209.61 855.95 210.48 855.90 210.92 C 855.49 212.30 855.91 213.36 857.15 214.10 C 857.15 214.53 857.15 215.39 857.15 215.82 C 856.61 217.26 856.96 218.31 858.20 218.97 L 857.87 220.04 C 857.15 221.46 858.15 222.91 859.02 223.99 L 858.82 225.02 C 858.46 226.32 858.88 227.33 860.09 228.06 C 860.05 228.50 859.97 229.38 859.93 229.81 C 859.52 231.14 859.86 232.24 860.93 233.13 L 861.03 233.84 C 861.15 235.71 861.44 237.55 861.92 239.38 C 852.71 239.59 843.49 239.59 834.28 239.47 C 832.65 227.85 830.87 216.25 829.17 204.64 C 828.63 200.98 829.78 197.39 830.40 193.83 Z" />
</g>
<g id="#fecc38ff">
<path fill="#fecc38" opacity="1.00" d=" M 185.57 33.22 C 196.44 33.02 207.31 32.97 218.18 32.81 C 218.67 37.99 221.02 43.26 219.31 48.41 C 217.86 53.80 216.66 59.25 215.10 64.60 L 214.55 62.98 C 214.44 62.61 214.21 61.86 214.09 61.48 C 213.34 59.40 213.62 56.53 212.17 54.90 C 201.69 54.66 191.19 54.87 180.70 54.81 C 181.76 47.50 184.05 40.44 185.57 33.22 Z" />
<path fill="#fecc38" opacity="1.00" d=" M 274.06 32.99 C 279.32 33.09 284.58 33.10 289.84 33.20 C 293.40 40.45 287.68 47.66 288.91 55.06 L 288.96 55.62 C 288.95 58.18 289.32 61.48 287.75 63.49 C 282.68 63.81 277.57 64.04 272.50 63.81 C 271.64 61.26 271.56 58.55 270.96 55.94 C 270.70 54.98 270.40 54.02 270.08 53.07 C 271.17 48.74 272.40 44.44 273.41 40.08 C 274.09 37.77 273.99 35.36 274.06 32.99 Z" />
<path fill="#fecc38" opacity="1.00" d=" M 327.36 33.21 C 338.30 33.18 349.24 33.09 360.18 32.99 C 360.70 38.42 360.49 43.86 359.90 49.28 L 359.84 49.84 C 359.00 54.58 359.36 59.42 359.01 64.21 C 348.07 64.08 337.12 64.11 326.18 63.98 C 324.72 58.72 324.05 53.20 325.07 47.79 C 325.51 45.95 325.92 44.11 326.17 42.23 C 326.56 39.22 326.87 36.21 327.36 33.21 Z" />
<path fill="#fecc38" opacity="1.00" d=" M 398.19 33.21 C 409.40 33.06 420.62 32.95 431.83 33.01 C 432.20 43.45 433.18 54.09 431.00 64.40 C 419.73 64.40 408.46 64.40 397.19 64.39 C 395.93 54.00 397.55 43.58 398.19 33.21 Z" />
<path fill="#fecc38" opacity="1.00" d=" M 469.61 33.20 C 476.52 33.14 483.42 33.08 490.33 32.99 C 490.32 43.66 489.96 54.34 489.81 65.01 C 483.02 64.94 476.23 64.86 469.44 64.83 C 469.42 54.29 469.54 43.75 469.61 33.20 Z" />
<path fill="#fecc38" opacity="1.00" d=" M 828.40 55.26 C 828.79 56.47 828.94 57.72 829.21 58.96 C 828.63 60.30 828.27 62.59 830.17 63.03 C 830.08 63.53 829.89 64.54 829.79 65.04 C 829.46 66.31 829.87 67.33 831.03 68.09 C 831.06 68.73 831.10 69.99 831.13 70.62 C 831.14 71.18 831.18 72.30 831.20 72.86 C 820.01 72.89 808.82 72.81 797.64 72.90 L 797.04 72.90 C 796.94 75.59 796.97 78.29 796.66 80.97 C 794.89 74.76 793.54 68.01 794.80 61.58 C 795.15 59.71 795.51 57.84 795.88 55.98 C 806.19 56.15 816.51 56.14 826.83 56.32 C 827.22 56.05 828.00 55.53 828.40 55.26 Z" />
<path fill="#fecc38" opacity="1.00" d=" M 285.55 69.41 C 296.97 69.33 308.39 69.26 319.81 69.19 C 320.45 73.52 320.94 77.91 320.09 82.25 C 320.02 82.63 319.89 83.40 319.82 83.78 C 318.41 84.82 318.25 86.64 318.92 88.17 C 318.91 88.57 318.88 89.38 318.87 89.79 C 317.50 90.85 317.34 92.65 317.94 94.18 C 317.92 94.61 317.89 95.46 317.88 95.89 C 316.28 97.19 316.20 99.34 316.98 101.11 C 316.15 106.47 315.24 111.82 314.33 117.16 C 313.93 119.46 313.45 121.74 312.65 123.94 C 312.30 121.99 311.94 120.04 311.58 118.10 C 303.23 117.85 294.88 117.73 286.53 117.78 C 283.56 117.12 278.63 119.14 277.39 115.44 C 276.40 112.21 277.61 108.96 278.31 105.82 C 279.55 98.97 280.99 92.15 282.15 85.28 C 283.30 79.99 283.77 74.55 285.55 69.41 Z" />
<path fill="#fecc38" opacity="1.00" d=" M 616.18 69.62 C 627.40 69.85 638.62 69.98 649.85 70.15 C 650.16 75.61 650.50 81.07 650.84 86.53 C 639.22 86.45 627.61 86.63 615.99 86.60 C 616.07 80.94 616.07 75.28 616.18 69.62 Z" />
<path fill="#fecc38" opacity="1.00" d=" M 356.92 87.02 C 357.25 81.25 358.19 75.55 358.81 69.81 C 370.01 69.98 381.22 69.98 392.42 70.25 C 391.77 75.77 391.23 81.30 390.59 86.82 C 379.36 86.91 368.14 86.91 356.92 87.02 Z" />
<path fill="#fecc38" opacity="1.00" d=" M 176.37 72.40 C 186.76 72.26 197.16 72.22 207.55 71.92 C 207.82 72.02 208.38 72.23 208.65 72.33 L 208.93 73.00 C 209.46 76.29 211.27 79.51 210.32 82.90 C 209.36 87.67 209.02 92.57 207.52 97.22 C 206.69 94.46 205.99 91.67 205.29 88.87 C 194.34 87.72 183.29 88.76 172.30 88.31 C 173.37 82.93 174.92 77.68 176.37 72.40 Z" />
<path fill="#fecc38" opacity="1.00" d=" M 753.17 89.33 C 755.91 89.11 758.67 89.02 761.43 88.97 C 765.30 89.02 769.18 88.84 773.05 89.01 C 774.38 89.30 774.42 90.84 774.65 91.90 C 775.63 98.56 776.65 105.22 777.67 111.88 C 778.27 115.74 777.18 119.58 776.89 123.42 C 773.37 123.49 769.86 123.83 766.35 124.01 C 765.83 122.03 765.44 120.03 764.96 118.05 C 753.89 118.07 742.82 118.05 731.75 118.10 C 731.34 118.10 730.53 118.10 730.13 118.09 C 730.09 119.39 730.08 120.69 730.09 121.99 L 729.42 123.69 C 728.09 112.40 727.14 101.08 726.09 89.76 C 732.74 89.64 739.40 88.94 746.05 89.53 C 748.41 89.78 750.82 89.82 753.17 89.33 Z" />
<path fill="#fecc38" opacity="1.00" d=" M 801.14 89.40 C 812.12 89.58 823.14 88.85 834.09 89.76 L 834.69 90.09 C 834.79 90.64 834.97 91.75 835.07 92.30 L 835.12 92.83 C 834.45 94.36 834.59 96.15 835.90 97.31 C 835.93 97.66 835.99 98.38 836.02 98.74 C 835.50 100.27 835.73 101.96 836.95 103.09 L 837.02 103.49 C 837.44 108.33 839.33 113.07 838.43 117.98 C 827.65 118.16 816.87 118.07 806.09 118.27 C 805.32 120.48 804.62 122.71 803.73 124.87 C 802.35 121.72 802.31 118.25 801.77 114.91 C 801.10 109.58 800.10 104.29 799.61 98.94 C 799.85 95.73 800.80 92.61 801.14 89.40 Z" />
<path fill="#fecc38" opacity="1.00" d=" M 439.40 92.20 L 439.66 92.20 C 449.10 92.47 458.56 91.65 467.98 92.36 C 474.22 92.62 480.49 92.02 486.71 92.75 C 486.97 95.00 487.06 97.31 487.83 99.47 C 488.25 107.70 487.32 115.95 487.19 124.19 C 479.15 124.18 471.12 124.24 463.10 124.16 C 463.09 122.11 463.06 120.06 463.03 118.02 C 451.59 117.99 440.14 118.02 428.70 117.99 C 428.66 116.24 428.69 114.49 428.78 112.75 C 429.15 105.97 429.76 99.22 430.16 92.44 C 433.24 92.39 436.32 92.33 439.40 92.20 Z" />
<path fill="#fecc38" opacity="1.00" d=" M 522.89 93.00 C 524.87 93.00 526.85 93.00 528.84 92.99 C 533.64 93.00 538.44 93.00 543.24 93.00 C 554.48 92.99 565.71 93.02 576.95 92.98 C 577.34 101.32 576.95 109.68 576.99 118.03 C 572.60 118.02 568.22 118.00 563.84 118.01 C 556.78 118.02 549.72 117.83 542.65 117.91 L 542.14 117.92 C 542.02 119.99 542.02 122.06 541.96 124.14 C 535.58 124.12 529.20 124.06 522.82 123.99 C 522.87 113.66 522.74 103.32 522.89 93.00 Z" />
<path fill="#fecc38" opacity="1.00" d=" M 164.17 117.56 C 175.61 117.17 187.07 117.11 198.50 117.77 C 198.59 122.04 201.92 125.84 200.62 130.14 C 198.92 138.16 197.13 146.17 195.40 154.19 C 184.01 153.99 172.61 153.78 161.22 153.60 C 160.10 150.32 159.09 146.99 158.26 143.62 C 158.18 143.22 158.03 142.42 157.95 142.02 C 159.12 141.26 159.52 140.25 159.15 138.98 L 158.87 137.88 C 160.14 137.29 160.54 136.33 160.07 134.98 L 159.81 133.92 C 161.55 133.48 161.39 131.36 161.09 129.99 L 161.04 129.31 C 162.20 128.46 162.57 127.35 162.13 125.98 L 162.00 125.29 C 163.22 124.45 163.55 123.34 163.00 121.95 L 163.08 121.51 C 163.48 120.20 163.84 118.89 164.17 117.56 Z" />
<path fill="#fecc38" opacity="1.00" d=" M 390.14 117.99 C 401.68 118.10 413.21 118.10 424.75 118.20 C 424.86 118.85 425.06 120.14 425.17 120.78 C 427.08 131.73 425.06 142.80 424.41 153.77 C 412.49 153.93 400.57 153.90 388.65 154.01 C 387.21 142.93 389.01 131.83 389.87 120.78 C 389.94 120.08 390.07 118.69 390.14 117.99 Z" />
<path fill="#fecc38" opacity="1.00" d=" M 579.33 118.13 C 591.17 118.15 603.01 118.13 614.85 118.14 C 614.93 120.23 615.01 122.33 615.12 124.42 C 615.61 134.22 616.24 144.03 615.85 153.85 C 603.90 153.88 591.95 153.96 580.01 154.00 C 579.77 142.05 579.59 130.09 579.33 118.13 Z" />
<path fill="#fecc38" opacity="1.00" d=" M 617.10 118.41 C 628.89 118.37 640.68 117.91 652.48 118.03 C 652.93 129.99 654.62 141.88 654.17 153.87 C 642.13 153.85 630.09 153.99 618.05 153.99 C 617.72 143.84 617.41 133.69 617.19 123.53 C 617.18 121.82 617.12 120.11 617.10 118.41 Z" />
<path fill="#fecc38" opacity="1.00" d=" M 655.46 118.17 C 666.96 118.09 678.47 118.16 689.98 118.13 C 691.00 130.02 693.55 141.90 691.99 153.87 C 680.04 153.87 668.10 153.86 656.16 153.87 C 655.76 144.11 654.98 134.36 654.91 124.59 C 655.02 122.45 655.25 120.31 655.46 118.17 Z" />
<path fill="#fecc38" opacity="1.00" d=" M 693.00 118.20 C 704.61 118.90 716.26 118.59 727.89 118.56 C 728.39 130.34 732.49 142.10 729.84 153.87 C 718.06 153.85 706.27 153.89 694.49 153.85 C 693.79 144.13 692.93 134.42 693.01 124.67 C 692.99 122.51 692.99 120.36 693.00 118.20 Z" />
<path fill="#fecc38" opacity="1.00" d=" M 852.37 171.03 C 898.04 170.83 943.71 170.76 989.38 170.59 C 1001.65 216.07 1013.99 261.55 1026.14 307.06 C 1025.96 310.77 1023.85 314.22 1022.81 317.80 C 973.60 317.80 924.39 317.80 875.18 317.80 C 875.07 311.01 875.04 304.17 873.17 297.59 C 869.90 279.51 866.34 261.47 863.00 243.40 C 862.84 240.12 861.71 237.02 861.03 233.84 L 860.93 233.13 C 861.50 231.73 861.17 230.63 859.93 229.81 C 859.97 229.38 860.05 228.50 860.09 228.06 C 860.53 226.60 860.11 225.58 858.82 225.02 L 859.02 223.99 C 859.46 222.63 859.55 220.55 857.87 220.04 L 858.20 218.97 C 858.64 217.70 858.29 216.65 857.15 215.82 C 857.15 215.39 857.15 214.53 857.15 214.10 C 857.52 212.71 857.10 211.65 855.90 210.92 C 855.95 210.48 856.06 209.61 856.11 209.18 C 856.50 207.84 856.15 206.74 855.05 205.89 C 854.52 202.02 853.69 198.20 852.76 194.42 C 851.75 190.33 851.07 186.16 849.91 182.11 C 850.70 178.41 851.57 174.73 852.37 171.03 Z" />
<path fill="#fecc38" opacity="1.00" d=" M 213.99 238.80 C 226.60 238.57 239.22 238.78 251.84 239.02 C 252.43 241.61 253.83 244.19 253.25 246.90 C 252.20 253.74 250.85 260.52 249.77 267.35 C 249.17 270.03 248.83 272.77 248.98 275.52 C 249.10 278.28 248.76 281.03 248.45 283.77 C 235.36 284.00 222.27 284.02 209.19 284.20 C 208.44 279.87 207.23 275.47 208.05 271.06 C 210.04 260.31 212.19 249.59 213.99 238.80 Z" />
<path fill="#fecc38" opacity="1.00" d=" M 287.16 254.20 C 288.07 249.01 288.86 243.80 289.62 238.58 C 299.95 238.65 310.29 238.55 320.62 238.63 C 321.75 242.98 322.88 247.43 322.17 251.96 C 320.81 262.65 319.08 273.30 317.61 283.98 C 307.01 284.03 296.42 283.99 285.83 284.00 C 285.25 280.90 284.53 277.83 283.99 274.72 C 284.48 267.81 286.21 261.06 287.16 254.20 Z" />
<path fill="#fecc38" opacity="1.00" d=" M 376.55 239.00 C 389.41 238.60 402.30 239.07 415.18 239.01 C 415.76 244.29 416.40 249.62 415.79 254.94 C 414.75 264.61 414.90 274.40 413.23 284.00 C 400.33 283.96 387.44 284.08 374.55 283.94 C 374.22 279.66 373.18 275.39 373.66 271.09 C 374.65 260.39 375.68 249.70 376.55 239.00 Z" />
<path fill="#fecc38" opacity="1.00" d=" M 582.21 239.03 C 594.90 238.52 607.57 239.33 620.25 238.76 C 620.71 253.75 622.13 268.73 621.51 283.74 C 608.43 283.90 595.34 284.16 582.26 284.20 C 582.71 269.15 582.23 254.08 582.21 239.03 Z" />
<path fill="#fecc38" opacity="1.00" d=" M 675.22 239.02 C 686.15 238.98 697.07 239.01 708.00 239.00 C 708.84 249.36 709.66 259.73 710.53 270.09 C 710.95 274.73 710.06 279.36 709.75 283.99 C 699.17 284.01 688.59 283.99 678.01 284.00 C 676.65 269.03 674.61 254.08 675.22 239.02 Z" />
<path fill="#fecc38" opacity="1.00" d=" M 744.48 239.30 C 757.14 238.66 769.85 239.13 782.53 239.03 C 784.06 250.08 785.78 261.10 787.32 272.14 C 787.31 276.18 785.72 280.04 785.00 283.99 C 772.33 284.12 759.67 284.12 747.01 284.27 C 745.91 269.30 742.76 254.35 744.48 239.30 Z" />
<path fill="#fecc38" opacity="1.00" d=" M 124.06 276.85 C 124.46 276.64 125.28 276.21 125.68 276.00 C 133.31 276.04 140.94 276.14 148.56 276.21 C 149.03 277.73 149.50 279.26 150.02 280.77 C 150.88 283.36 151.89 286.07 151.27 288.85 C 149.27 298.58 147.06 308.28 145.00 318.00 C 136.45 317.93 127.90 318.16 119.36 317.87 C 118.27 314.81 117.29 311.71 116.38 308.59 C 116.28 308.20 116.08 307.41 115.99 307.02 C 117.12 306.29 117.52 305.30 117.17 304.07 L 116.96 303.17 C 118.14 302.39 118.53 301.32 118.16 299.97 L 118.05 299.25 C 119.22 298.43 119.60 297.33 119.18 295.96 L 119.07 295.27 C 120.25 294.46 120.63 293.35 120.21 291.96 L 120.07 291.15 C 120.31 290.59 120.79 289.46 121.03 288.89 L 120.90 288.01 C 122.06 287.25 122.47 286.23 122.13 284.96 L 121.94 283.99 C 123.09 283.24 123.50 282.24 123.16 280.98 L 122.96 280.09 C 124.04 279.24 124.40 278.16 124.06 276.85 Z" />
</g>
<g id="#000000ff">
<path fill="#000000" opacity="1.00" d=" M 256.17 33.02 C 261.44 33.06 266.70 33.11 271.97 33.20 C 272.26 35.53 272.72 37.83 273.41 40.08 C 272.40 44.44 271.17 48.74 270.08 53.07 C 270.40 54.02 270.70 54.98 270.96 55.94 C 271.49 58.60 270.57 61.23 270.03 63.81 C 264.69 63.94 259.34 64.08 254.00 64.16 C 253.30 59.62 251.45 55.03 252.65 50.41 C 253.86 44.62 255.03 38.82 256.17 33.02 Z" />
<path fill="#000000" opacity="1.00" d=" M 292.97 33.35 C 303.71 33.30 314.45 32.98 325.20 32.82 C 325.64 35.94 326.20 39.07 326.17 42.23 C 325.92 44.11 325.51 45.95 325.07 47.79 C 323.50 53.00 324.53 58.57 322.97 63.81 C 312.12 63.77 301.27 63.84 290.42 63.78 C 290.01 61.04 289.45 58.34 288.96 55.62 L 288.91 55.06 C 289.50 47.72 291.67 40.59 292.97 33.35 Z" />
<path fill="#000000" opacity="1.00" d=" M 362.65 33.02 C 373.70 32.92 384.76 32.89 395.81 32.81 C 396.19 38.19 397.41 43.60 396.53 48.99 C 395.84 54.19 395.25 59.40 394.58 64.60 C 383.42 64.63 372.27 64.54 361.11 64.65 C 360.16 59.78 359.37 54.82 359.84 49.84 L 359.90 49.28 C 361.14 43.92 361.70 38.43 362.65 33.02 Z" />
<path fill="#000000" opacity="1.00" d=" M 433.83 33.16 C 445.25 32.71 456.67 33.86 468.09 33.14 C 468.27 43.77 468.33 54.41 467.57 65.02 C 456.18 64.90 444.78 64.94 433.39 64.77 C 432.11 54.25 433.25 43.68 433.83 33.16 Z" />
<path fill="#000000" opacity="1.00" d=" M 524.22 34.04 C 530.05 33.88 535.89 33.85 541.73 33.75 C 541.86 44.16 541.90 54.58 542.01 64.99 C 536.00 65.10 530.00 65.16 523.99 65.26 C 524.07 54.85 524.20 44.45 524.22 34.04 Z" />
<path fill="#000000" opacity="1.00" d=" M 543.04 34.24 C 554.34 34.29 565.65 34.29 576.96 34.23 C 577.03 44.41 577.01 54.58 576.97 64.76 C 565.80 64.69 554.64 64.77 543.47 64.71 C 543.39 54.55 543.11 44.40 543.04 34.24 Z" />
<path fill="#000000" opacity="1.00" d=" M 579.00 34.01 C 590.19 33.91 601.38 33.91 612.57 33.79 C 612.71 44.19 612.69 54.58 612.84 64.97 C 601.56 65.12 590.28 65.08 579.00 65.21 C 578.99 54.81 579.00 44.41 579.00 34.01 Z" />
<path fill="#000000" opacity="1.00" d=" M 614.03 34.17 C 625.40 34.23 636.77 34.20 648.14 34.18 C 648.52 44.45 648.69 54.72 649.01 64.99 C 637.68 65.10 626.34 65.09 615.01 65.21 C 614.67 54.86 614.30 44.52 614.03 34.17 Z" />
<path fill="#000000" opacity="1.00" d=" M 649.81 33.99 C 661.14 34.09 672.47 34.10 683.81 34.20 C 684.54 44.33 685.97 54.46 685.09 64.62 C 673.79 64.63 662.49 64.76 651.20 64.81 C 650.72 54.54 650.26 44.26 649.81 33.99 Z" />
<path fill="#000000" opacity="1.00" d=" M 686.35 34.10 C 696.95 33.80 707.57 33.96 718.18 33.80 C 719.15 44.10 720.86 54.41 719.60 64.77 C 708.80 64.84 698.00 64.77 687.20 64.81 C 686.20 54.60 685.81 44.36 686.35 34.10 Z" />
<path fill="#000000" opacity="1.00" d=" M 719.96 33.97 C 725.29 34.08 730.63 34.12 735.97 34.19 C 737.31 44.40 738.44 54.67 737.96 64.99 C 732.71 64.89 727.46 64.73 722.21 64.60 C 721.01 54.43 720.36 44.21 719.96 33.97 Z" />
<path fill="#000000" opacity="1.00" d=" M 738.71 34.25 C 743.86 34.09 749.01 34.08 754.16 33.99 C 755.19 44.16 758.65 54.46 755.58 64.59 C 750.38 64.73 745.19 64.87 740.00 65.00 C 739.27 58.55 739.14 52.04 738.22 45.61 C 737.75 41.82 738.39 38.03 738.71 34.25 Z" />
<path fill="#000000" opacity="1.00" d=" M 790.66 47.14 C 789.86 42.75 790.90 38.30 791.93 34.05 C 802.61 33.65 813.30 34.21 823.99 34.15 C 825.06 39.15 825.69 44.26 827.14 49.18 C 827.60 51.20 828.00 53.22 828.40 55.26 C 828.00 55.53 827.22 56.05 826.83 56.32 C 816.51 56.14 806.19 56.15 795.88 55.98 C 795.51 57.84 795.15 59.71 794.80 61.58 C 794.41 62.69 794.00 63.78 793.60 64.88 C 792.96 58.91 791.60 53.06 790.66 47.14 Z" />
<path fill="#000000" opacity="1.00" d=" M 180.57 55.37 C 191.05 55.44 201.53 55.11 212.01 55.29 C 212.59 57.39 213.32 59.45 214.09 61.48 C 214.21 61.86 214.44 62.61 214.55 62.98 C 214.46 68.89 213.19 74.85 211.43 80.49 C 210.63 77.99 209.99 75.42 208.93 73.00 L 208.65 72.33 L 208.36 71.59 C 197.76 71.64 187.17 71.80 176.58 71.78 C 177.94 66.32 179.14 60.82 180.57 55.37 Z" />
<path fill="#000000" opacity="1.00" d=" M 264.28 69.15 C 270.27 69.11 276.25 69.07 282.24 68.98 C 283.45 74.38 282.97 79.87 282.15 85.28 C 280.99 92.15 279.55 98.97 278.31 105.82 C 277.61 108.96 276.40 112.21 277.39 115.44 C 278.63 119.14 283.56 117.12 286.53 117.78 C 283.45 117.92 280.37 117.94 277.29 117.99 C 274.02 108.53 282.13 98.97 279.22 89.42 L 278.77 88.98 C 273.08 88.57 267.35 88.82 261.65 88.80 C 261.26 87.16 260.92 85.50 261.41 83.84 C 262.34 78.94 263.37 74.05 264.28 69.15 Z" />
<path fill="#000000" opacity="1.00" d=" M 394.17 69.02 C 406.04 69.06 417.92 69.11 429.80 69.21 C 430.54 87.73 427.75 106.15 426.90 124.62 C 426.43 123.29 425.78 122.04 425.17 120.78 C 425.06 120.14 424.86 118.85 424.75 118.20 C 413.21 118.10 401.68 118.10 390.14 117.99 C 390.07 118.69 389.94 120.08 389.87 120.78 C 389.23 121.90 388.62 123.04 388.05 124.21 C 388.00 122.15 387.97 120.10 387.91 118.04 C 385.99 118.01 384.08 117.99 382.17 117.97 C 372.66 117.64 363.13 117.60 353.61 117.38 C 353.24 115.21 352.84 112.99 353.23 110.78 C 354.17 104.45 355.38 98.15 355.92 91.77 L 356.00 91.29 C 356.29 89.87 356.63 88.45 356.92 87.02 C 368.14 86.91 379.36 86.91 390.59 86.82 C 391.03 86.66 391.92 86.36 392.36 86.20 C 393.26 80.51 393.49 74.74 394.17 69.02 Z" />
<path fill="#000000" opacity="1.00" d=" M 431.42 70.00 C 442.89 70.01 454.36 69.98 465.83 70.01 C 465.83 77.19 465.78 84.37 465.87 91.55 C 457.13 91.89 448.38 91.46 439.66 92.20 L 439.40 92.20 C 436.48 92.01 433.56 91.95 430.64 91.97 C 430.79 84.64 431.14 77.32 431.42 70.00 Z" />
<path fill="#000000" opacity="1.00" d=" M 543.17 70.14 C 554.45 70.12 565.72 70.15 576.99 70.12 C 577.02 77.74 576.76 85.36 576.95 92.98 C 565.71 93.02 554.48 92.99 543.24 93.00 C 543.11 85.38 543.21 77.76 543.17 70.14 Z" />
<path fill="#000000" opacity="1.00" d=" M 578.83 70.01 C 590.74 69.96 602.65 69.86 614.57 69.87 C 614.60 75.49 614.70 81.11 614.69 86.73 C 626.70 87.12 638.72 86.72 650.74 86.90 C 651.23 97.28 652.36 107.64 652.48 118.03 C 640.68 117.91 628.89 118.37 617.10 118.41 C 617.12 120.11 617.18 121.82 617.19 123.53 L 615.12 124.42 C 615.01 122.33 614.93 120.23 614.85 118.14 C 603.01 118.13 591.17 118.15 579.33 118.13 C 579.06 102.09 579.03 86.05 578.83 70.01 Z" />
<path fill="#000000" opacity="1.00" d=" M 652.14 70.02 C 663.61 69.97 675.07 70.02 686.54 70.00 C 687.75 86.04 688.86 102.08 689.98 118.13 C 678.47 118.16 666.96 118.09 655.46 118.17 C 655.25 120.31 655.02 122.45 654.91 124.59 C 653.31 121.65 654.24 118.19 653.89 115.00 C 653.03 100.02 652.12 85.04 652.14 70.02 Z" />
<path fill="#000000" opacity="1.00" d=" M 688.26 70.12 C 699.89 70.10 711.52 69.82 723.16 69.74 C 724.64 85.87 726.63 101.96 727.74 118.13 C 716.16 118.07 704.58 118.22 693.00 118.03 L 693.00 118.20 C 692.99 120.36 692.99 122.51 693.01 124.67 C 691.26 121.71 691.71 118.16 691.32 114.89 C 690.41 103.89 689.60 92.88 688.58 81.88 C 688.00 77.99 687.89 74.04 688.26 70.12 Z" />
<path fill="#000000" opacity="1.00" d=" M 831.13 70.62 C 832.21 77.89 834.34 84.99 835.07 92.30 C 834.97 91.75 834.79 90.64 834.69 90.09 L 834.09 89.76 C 832.61 88.58 830.69 89.00 828.97 88.95 C 819.59 89.20 810.19 88.87 800.81 89.24 C 800.46 91.59 800.08 93.93 799.69 96.27 C 797.27 88.71 796.54 80.76 797.64 72.90 C 808.82 72.81 820.01 72.89 831.20 72.86 C 831.18 72.30 831.14 71.18 831.13 70.62 Z" />
<path fill="#000000" opacity="1.00" d=" M 251.00 75.80 C 253.46 76.30 258.36 74.26 258.85 77.87 C 258.48 81.64 257.45 85.30 256.81 89.03 C 253.92 88.91 251.04 88.88 248.16 88.70 C 249.16 84.41 250.08 80.11 251.00 75.80 Z" />
<path fill="#000000" opacity="1.00" d=" M 763.12 76.03 C 765.70 76.01 768.28 76.01 770.87 76.02 C 771.36 80.24 771.89 84.45 772.44 88.67 C 769.78 88.69 767.13 88.70 764.48 88.74 C 763.50 84.58 762.71 80.33 763.12 76.03 Z" />
<path fill="#000000" opacity="1.00" d=" M 473.99 77.00 C 479.92 77.03 485.85 76.90 491.78 77.11 C 492.09 84.70 491.08 92.24 490.74 99.81 C 490.01 99.72 488.56 99.55 487.83 99.47 C 487.06 97.31 486.97 95.00 486.71 92.75 C 486.28 92.52 485.43 92.07 485.01 91.85 C 484.67 89.63 485.08 87.15 484.18 85.10 C 480.88 84.76 477.56 84.85 474.26 84.77 C 474.16 82.18 474.08 79.59 473.99 77.00 Z" />
<path fill="#000000" opacity="1.00" d=" M 499.47 78.29 C 504.03 78.26 508.60 78.27 513.17 78.24 C 513.22 85.25 513.37 92.27 513.15 99.28 C 508.55 99.93 503.88 99.49 499.25 99.78 C 499.33 92.62 499.45 85.45 499.47 78.29 Z" />
<path fill="#000000" opacity="1.00" d=" M 522.52 77.51 C 527.25 77.58 531.98 77.68 536.72 77.73 C 536.65 80.24 536.57 82.74 536.52 85.25 C 533.92 85.17 531.33 85.08 528.75 85.00 C 528.76 87.67 528.78 90.33 528.84 92.99 C 526.85 93.00 524.87 93.00 522.89 93.00 C 522.93 87.83 522.63 82.67 522.52 77.51 Z" />
<path fill="#000000" opacity="1.00" d=" M 171.93 88.83 C 182.60 89.07 193.29 88.62 203.95 89.06 C 206.28 92.79 207.61 97.58 206.45 101.96 C 204.86 109.01 203.88 116.21 202.06 123.21 C 198.97 124.36 199.63 119.10 198.78 117.22 C 187.93 116.80 177.06 117.11 166.22 116.65 C 166.14 114.09 165.93 111.49 166.67 109.00 C 168.47 102.29 170.06 95.52 171.93 88.83 Z" />
<path fill="#000000" opacity="1.00" d=" M 498.04 101.07 C 502.95 100.89 507.86 100.82 512.78 100.79 C 512.75 108.28 512.76 115.76 512.77 123.24 C 507.84 123.28 502.92 123.28 497.99 123.25 C 498.53 115.86 498.11 108.47 498.04 101.07 Z" />
<path fill="#000000" opacity="1.00" d=" M 427.72 112.93 C 427.98 112.88 428.51 112.79 428.78 112.75 C 428.69 114.49 428.66 116.24 428.70 117.99 C 440.14 118.02 451.59 117.99 463.03 118.02 C 463.06 120.06 463.09 122.11 463.10 124.16 C 463.15 134.10 462.40 144.01 461.99 153.93 C 450.28 153.91 438.57 154.10 426.85 154.06 C 425.56 140.33 428.16 126.65 427.72 112.93 Z" />
<path fill="#000000" opacity="1.00" d=" M 254.84 117.79 C 261.15 117.88 267.46 117.94 273.77 118.00 C 274.29 119.83 274.85 121.65 275.35 123.49 C 274.20 131.48 272.02 139.36 272.16 147.50 C 271.78 149.58 271.42 151.67 270.91 153.73 C 264.70 153.84 258.49 154.05 252.27 154.12 C 251.80 150.12 250.60 146.16 250.80 142.12 C 251.66 136.04 253.06 130.06 253.87 123.97 C 254.15 121.91 254.49 119.85 254.84 117.79 Z" />
<path fill="#000000" opacity="1.00" d=" M 314.33 117.16 C 326.16 118.17 338.03 118.04 349.89 118.00 C 349.96 120.18 350.07 122.35 350.19 124.53 C 350.53 134.35 349.44 144.19 347.73 153.85 C 335.84 153.88 323.94 153.86 312.05 153.86 C 311.02 149.21 309.97 144.46 310.62 139.67 C 311.35 134.44 312.30 129.22 312.65 123.94 C 313.45 121.74 313.93 119.46 314.33 117.16 Z" />
<path fill="#000000" opacity="1.00" d=" M 542.65 117.91 C 549.72 117.83 556.78 118.02 563.84 118.01 C 568.39 118.09 572.93 118.14 577.48 118.20 C 577.50 130.12 577.61 142.04 577.75 153.96 C 565.84 154.04 553.92 153.82 542.01 153.88 C 542.23 141.89 542.27 129.90 542.65 117.91 Z" />
<path fill="#000000" opacity="1.00" d=" M 730.13 118.09 C 730.53 118.10 731.34 118.10 731.75 118.10 C 742.72 118.53 753.71 118.28 764.69 118.23 C 766.10 125.49 767.07 132.83 768.31 140.13 C 769.22 144.65 768.16 149.22 767.70 153.73 C 755.99 153.85 744.28 154.03 732.57 154.14 C 731.74 143.43 730.95 132.71 730.09 121.99 C 730.08 120.69 730.09 119.39 730.13 118.09 Z" />
<path fill="#000000" opacity="1.00" d=" M 806.21 118.70 C 817.34 118.31 828.48 118.80 839.61 118.44 C 840.12 120.04 840.59 121.66 841.07 123.28 C 842.32 129.10 843.32 134.97 844.14 140.87 C 844.52 145.59 843.32 150.21 842.35 154.78 C 830.74 154.67 819.14 154.86 807.53 154.83 C 806.44 146.90 805.22 138.99 804.07 131.08 C 803.40 126.82 805.42 122.80 806.21 118.70 Z" />
<path fill="#000000" opacity="1.00" d=" M 769.84 123.94 C 772.75 123.88 775.68 123.83 778.61 123.92 C 779.56 131.60 780.66 139.26 781.71 146.93 C 782.04 149.30 781.57 151.67 781.21 154.00 C 778.71 154.10 776.21 154.17 773.73 154.28 C 772.47 144.16 770.17 134.15 769.84 123.94 Z" />
<path fill="#000000" opacity="1.00" d=" M 241.09 124.17 C 243.79 124.14 246.49 124.15 249.19 124.26 C 248.85 134.42 245.26 144.09 243.52 154.05 C 241.02 154.06 238.53 154.04 236.04 154.02 C 236.11 143.88 239.65 134.16 241.09 124.17 Z" />
<path fill="#000000" opacity="1.00" d=" M 521.42 126.11 C 523.60 126.00 525.79 125.84 527.99 125.71 C 528.10 132.39 528.16 139.07 528.25 145.75 C 530.49 145.84 532.74 145.91 535.00 146.01 C 535.00 148.67 534.99 151.33 535.00 154.00 C 530.33 154.00 525.66 154.00 520.99 154.00 C 521.13 144.70 521.42 135.41 521.42 126.11 Z" />
<path fill="#000000" opacity="1.00" d=" M 482.74 126.32 C 484.99 126.25 487.24 126.27 489.50 126.19 C 489.33 135.55 489.17 144.90 488.99 154.25 C 482.90 154.07 476.81 153.94 470.72 153.73 C 470.85 151.23 470.92 148.72 471.06 146.22 C 474.90 146.21 478.74 146.09 482.58 145.89 C 482.50 139.37 482.70 132.84 482.74 126.32 Z" />
<path fill="#000000" opacity="1.00" d=" M 496.76 127.00 C 501.76 127.00 506.76 126.99 511.77 127.02 C 511.90 134.68 512.10 142.33 512.25 149.99 C 507.17 150.09 502.09 150.16 497.01 150.26 C 496.91 142.50 496.83 134.75 496.76 127.00 Z" />
<path fill="#000000" opacity="1.00" d=" M 152.39 166.39 C 159.70 166.03 167.01 166.30 174.32 166.15 C 175.45 170.65 178.36 175.16 176.89 179.91 C 173.34 195.39 169.89 210.89 166.42 226.39 C 158.48 226.26 150.53 226.21 142.60 225.93 C 142.04 223.00 141.09 220.18 139.91 217.46 C 139.48 215.62 139.35 213.70 139.95 211.89 C 143.68 198.03 147.18 184.11 150.92 170.26 C 151.37 168.96 151.89 167.68 152.39 166.39 Z" />
<path fill="#000000" opacity="1.00" d=" M 213.87 181.93 C 215.15 176.80 215.60 171.44 217.67 166.52 C 236.81 166.89 255.95 166.92 275.09 167.22 C 275.79 176.21 273.13 184.96 271.73 193.77 C 252.18 193.83 232.63 193.80 213.08 193.79 C 212.68 189.82 212.90 185.80 213.87 181.93 Z" />
<path fill="#000000" opacity="1.00" d=" M 291.36 167.06 C 309.92 166.57 328.51 166.84 347.08 166.85 C 349.95 166.51 349.29 170.10 349.32 171.92 C 348.56 179.31 347.76 186.76 345.94 193.98 C 326.56 193.96 307.18 193.89 287.80 193.80 C 287.51 191.58 287.23 189.32 287.73 187.11 C 288.93 180.43 290.23 173.76 291.36 167.06 Z" />
<path fill="#000000" opacity="1.00" d=" M 369.32 167.38 C 376.44 166.42 383.76 167.18 390.96 166.85 C 394.22 167.07 398.03 165.96 400.82 168.17 C 403.40 170.28 404.26 173.86 403.68 177.05 C 402.95 181.69 402.67 186.42 401.64 191.02 C 399.93 194.11 396.03 193.91 393.01 193.89 C 384.66 193.71 376.30 194.26 367.97 193.82 C 365.15 192.46 362.82 189.28 363.04 186.00 C 363.07 181.42 363.78 176.87 364.58 172.38 C 364.94 169.89 367.23 168.40 369.32 167.38 Z" />
<path fill="#000000" opacity="1.00" d=" M 419.93 172.05 C 419.79 169.87 421.81 168.10 423.90 168.06 C 429.98 167.83 436.07 168.13 442.16 167.95 C 443.17 169.51 444.35 171.10 444.24 173.07 C 444.51 178.37 443.71 183.65 443.31 188.93 C 443.18 191.29 441.05 193.00 439.04 193.86 C 434.37 194.24 429.68 194.15 425.00 194.14 C 421.17 194.50 419.05 190.23 419.10 186.96 C 419.30 181.99 419.49 177.01 419.93 172.05 Z" />
<path fill="#000000" opacity="1.00" d=" M 558.96 167.98 C 565.63 167.57 572.30 168.15 578.98 168.01 C 579.43 169.33 580.46 170.51 580.38 171.99 C 580.42 177.33 580.22 182.67 580.26 188.01 C 580.05 189.42 580.52 191.26 579.31 192.31 C 576.96 194.87 573.09 193.53 570.05 193.92 C 565.87 193.53 560.47 195.42 557.36 191.71 C 556.15 188.00 557.16 183.88 556.91 180.02 C 557.22 175.96 555.85 171.25 558.96 167.98 Z" />
<path fill="#000000" opacity="1.00" d=" M 594.26 173.90 C 594.13 171.51 595.68 169.61 596.94 167.75 C 607.31 168.21 617.70 167.89 628.08 168.02 C 630.54 167.78 632.39 169.93 633.28 171.98 C 633.64 176.63 633.29 181.30 633.45 185.96 C 633.41 188.22 633.73 191.04 631.62 192.53 C 629.04 195.04 625.29 194.34 622.04 194.42 C 614.68 194.24 607.31 194.65 599.96 194.26 C 597.52 193.41 594.42 191.90 594.26 188.95 C 594.06 183.94 594.11 178.91 594.26 173.90 Z" />
<path fill="#000000" opacity="1.00" d=" M 647.36 172.29 C 648.39 169.22 651.92 167.58 655.01 167.78 C 663.01 167.81 671.01 167.79 679.01 167.79 C 682.16 167.53 685.60 169.71 686.01 172.99 C 687.06 178.65 687.24 184.42 687.24 190.16 C 685.39 192.25 683.07 194.25 680.08 194.00 C 671.38 194.07 662.68 194.20 653.99 194.13 C 650.17 194.48 647.07 190.73 647.51 187.06 C 647.51 182.14 647.04 177.20 647.36 172.29 Z" />
<path fill="#000000" opacity="1.00" d=" M 702.96 168.00 C 712.63 167.91 722.30 167.65 731.97 167.65 C 736.33 167.71 739.66 171.81 739.29 176.08 C 739.15 181.50 743.01 188.73 737.57 192.57 C 735.57 194.58 732.63 194.22 730.05 194.23 C 722.69 194.12 715.33 194.29 707.97 194.18 C 705.12 194.20 702.61 192.23 700.93 190.10 C 700.21 184.08 700.30 177.97 699.80 171.92 C 700.85 170.61 701.91 169.31 702.96 168.00 Z" />
<path fill="#000000" opacity="1.00" d=" M 756.18 168.01 C 766.78 167.44 777.43 167.60 788.02 168.27 C 793.65 171.84 792.81 179.22 793.45 184.99 C 793.96 188.51 792.97 192.96 789.17 194.09 C 780.13 194.38 771.07 194.10 762.03 194.22 C 758.24 194.66 754.13 191.92 753.87 187.96 C 753.32 183.64 752.80 179.31 752.53 174.97 C 752.30 172.09 754.58 170.07 756.18 168.01 Z" />
<path fill="#000000" opacity="1.00" d=" M 209.28 206.01 C 209.40 204.59 210.49 203.25 212.02 203.44 C 228.32 203.24 244.63 203.36 260.94 203.16 C 262.92 203.22 265.18 202.97 266.79 204.41 C 268.35 206.52 268.70 209.37 268.19 211.91 C 267.01 218.88 266.29 225.94 264.54 232.80 C 261.06 236.00 256.23 234.85 251.95 235.00 C 236.93 234.98 221.91 235.03 206.89 234.98 C 205.91 232.77 204.17 230.50 204.99 227.96 C 206.41 220.64 207.85 213.33 209.28 206.01 Z" />
<path fill="#000000" opacity="1.00" d=" M 285.03 206.05 C 285.53 203.84 288.26 204.01 290.03 203.81 C 305.70 203.77 321.37 203.83 337.03 203.78 C 339.02 203.65 340.86 204.47 342.67 205.18 C 343.50 207.68 343.92 210.32 343.43 212.94 C 342.57 218.93 342.54 225.05 341.16 230.95 C 340.99 232.81 339.37 233.84 338.18 235.06 C 319.88 234.86 301.57 235.16 283.26 234.91 C 281.20 230.91 281.45 226.35 282.14 222.04 C 282.97 216.70 283.00 211.13 285.03 206.05 Z" />
<path fill="#000000" opacity="1.00" d=" M 360.69 207.45 C 360.82 204.77 363.56 203.53 365.95 203.78 C 377.68 203.97 389.43 204.12 401.17 203.94 C 405.07 212.18 401.31 221.37 401.08 229.98 C 401.32 232.24 399.65 233.79 398.27 235.30 C 385.82 234.98 373.37 235.13 360.91 235.00 C 359.94 233.46 358.35 232.02 358.66 230.03 C 359.02 222.48 359.81 214.95 360.69 207.45 Z" />
<path fill="#000000" opacity="1.00" d=" M 417.90 204.94 C 422.10 203.32 426.64 203.83 431.04 203.75 C 439.35 203.75 447.66 203.58 455.98 203.62 C 458.32 203.48 460.50 205.64 460.11 208.03 C 459.80 216.03 459.34 224.04 458.78 232.03 C 458.74 234.42 456.00 235.14 454.05 235.01 C 443.05 235.07 432.04 235.16 421.04 235.16 C 418.69 235.52 416.38 233.46 416.88 231.04 C 417.19 222.35 417.16 213.62 417.90 204.94 Z" />
<path fill="#000000" opacity="1.00" d=" M 539.30 207.97 C 539.14 205.93 540.65 203.68 542.90 204.04 C 554.28 203.58 565.68 203.92 577.06 204.03 C 579.77 203.63 581.43 206.61 581.23 208.97 C 581.22 216.66 581.30 224.35 581.19 232.03 C 581.30 234.77 578.06 235.40 575.95 235.28 C 565.30 235.25 554.65 235.30 544.01 235.26 C 542.08 235.40 540.53 234.19 538.94 233.34 C 539.20 224.88 539.03 216.42 539.30 207.97 Z" />
<path fill="#000000" opacity="1.00" d=" M 600.23 204.08 C 612.82 203.89 625.40 204.05 637.99 204.01 C 638.87 205.30 640.42 206.40 640.31 208.13 C 640.54 215.06 640.71 222.00 640.95 228.93 C 641.21 231.13 640.31 233.17 639.34 235.08 C 627.21 235.39 615.08 234.88 602.96 234.76 C 600.39 235.07 598.47 232.44 598.77 230.06 C 598.73 222.05 598.77 214.04 598.78 206.02 C 599.14 205.54 599.87 204.57 600.23 204.08 Z" />
<path fill="#000000" opacity="1.00" d=" M 662.06 208.00 C 662.16 206.54 661.45 203.55 663.89 203.84 C 709.25 203.68 754.61 203.96 799.98 203.68 C 801.82 210.73 802.59 217.98 803.71 225.15 C 804.23 228.35 804.15 231.59 804.00 234.82 C 757.02 234.80 710.03 235.10 663.05 234.88 C 662.37 225.94 662.47 216.96 662.06 208.00 Z" />
<path fill="#000000" opacity="1.00" d=" M 133.20 239.03 C 134.39 239.01 135.57 238.99 136.76 238.98 C 143.61 238.89 150.47 238.92 157.32 238.77 C 158.59 243.40 161.92 248.04 160.16 252.97 C 157.21 263.38 155.50 274.16 151.87 284.36 C 151.21 283.18 150.60 281.98 150.02 280.77 C 149.50 279.26 149.03 277.73 148.56 276.21 C 140.94 276.14 133.31 276.04 125.68 276.00 C 125.32 274.64 124.98 273.28 124.65 271.92 C 125.93 271.37 126.34 270.37 125.87 268.92 L 125.75 268.03 C 126.96 267.25 127.35 266.19 126.91 264.84 L 126.75 264.09 C 127.90 263.29 128.26 262.21 127.83 260.86 C 129.61 253.58 131.46 246.32 133.20 239.03 Z" />
<path fill="#000000" opacity="1.00" d=" M 172.80 239.02 C 185.54 238.85 198.28 238.72 211.02 238.61 C 211.59 241.66 212.58 244.75 212.08 247.89 C 210.65 255.95 208.73 263.93 207.46 272.02 C 207.57 276.14 207.55 280.27 206.33 284.25 C 193.85 283.96 181.35 284.28 168.88 283.89 C 167.04 279.63 164.53 274.79 165.94 270.03 C 168.31 259.71 170.50 249.35 172.80 239.02 Z" />
<path fill="#000000" opacity="1.00" d=" M 254.34 239.08 C 264.77 238.93 275.21 238.97 285.64 239.06 C 286.78 244.03 288.23 249.07 287.16 254.20 C 286.21 261.06 284.48 267.81 283.99 274.72 C 283.35 277.78 284.35 281.73 282.02 284.07 C 271.75 284.39 261.46 284.13 251.18 284.17 C 250.58 281.25 249.72 278.40 248.98 275.52 C 248.83 272.77 249.17 270.03 249.77 267.35 C 252.06 258.09 254.04 248.65 254.34 239.08 Z" />
<path fill="#000000" opacity="1.00" d=" M 336.18 239.04 C 348.67 238.94 361.15 238.81 373.64 238.89 C 374.25 243.76 375.42 248.64 374.84 253.58 C 373.73 263.65 372.85 273.74 371.80 283.81 C 359.08 283.80 346.36 283.78 333.63 283.82 C 333.01 279.21 331.68 274.60 332.36 269.93 C 333.65 259.63 334.96 249.34 336.18 239.04 Z" />
<path fill="#000000" opacity="1.00" d=" M 417.19 239.22 C 430.13 239.08 443.07 239.10 456.01 238.99 C 455.81 253.84 455.59 268.70 455.42 283.55 C 442.29 283.72 429.16 283.72 416.03 283.81 C 415.57 279.27 414.84 274.71 415.19 270.14 C 415.96 259.84 416.50 249.52 417.19 239.22 Z" />
<path fill="#000000" opacity="1.00" d=" M 469.15 239.00 C 488.36 239.46 507.58 239.26 526.80 239.38 C 526.87 254.37 526.78 269.36 526.85 284.35 C 507.50 284.41 488.16 284.22 468.81 284.19 C 468.90 272.79 469.73 261.38 469.12 249.98 C 469.05 246.32 469.14 242.66 469.15 239.00 Z" />
<path fill="#000000" opacity="1.00" d=" M 541.59 238.79 C 554.45 238.92 567.31 238.91 580.17 239.01 C 580.14 254.01 580.06 269.00 579.99 284.00 C 567.33 284.00 554.67 284.00 542.01 284.00 C 541.85 268.93 541.73 253.86 541.59 238.79 Z" />
<path fill="#000000" opacity="1.00" d=" M 623.21 239.39 C 635.86 239.28 648.51 239.14 661.16 238.99 C 662.36 253.96 663.16 268.95 662.85 283.97 C 649.90 284.03 636.95 283.98 624.01 284.00 C 623.33 269.14 622.98 254.26 623.21 239.39 Z" />
<path fill="#000000" opacity="1.00" d=" M 709.83 239.21 C 720.59 239.09 731.36 239.09 742.12 238.99 C 743.04 253.91 746.04 268.79 744.61 283.76 C 733.86 283.92 723.11 283.97 712.36 283.95 C 711.55 269.03 709.43 254.17 709.83 239.21 Z" />
<path fill="#000000" opacity="1.00" d=" M 804.34 239.81 C 822.91 239.72 841.49 239.95 860.06 239.90 C 862.18 239.56 862.35 242.02 863.00 243.40 C 866.34 261.47 869.90 279.51 873.17 297.59 C 873.35 302.38 875.43 307.16 874.01 311.94 C 873.38 313.95 873.50 316.49 872.12 318.08 C 859.29 318.44 846.44 318.23 833.61 318.42 C 833.21 315.65 832.82 312.87 832.47 310.10 C 825.70 309.88 818.92 310.08 812.15 309.96 C 809.23 290.67 806.18 271.39 803.19 252.11 C 802.56 247.98 803.81 243.88 804.34 239.81 Z" />
</g>
<g id="#a49e3855">
<path fill="#a49e38" opacity="0.33" d=" M 829.21 58.96 C 829.87 60.19 830.67 61.59 830.17 63.03 C 828.27 62.59 828.63 60.30 829.21 58.96 Z" />
<path fill="#a49e38" opacity="0.33" d=" M 829.79 65.04 C 831.11 65.59 831.52 66.60 831.03 68.09 C 829.87 67.33 829.46 66.31 829.79 65.04 Z" />
<path fill="#a49e38" opacity="0.33" d=" M 318.92 88.17 C 318.25 86.64 318.41 84.82 319.82 83.78 C 320.19 85.30 320.00 86.96 318.92 88.17 Z" />
<path fill="#a49e38" opacity="0.33" d=" M 317.94 94.18 C 317.34 92.65 317.50 90.85 318.87 89.79 C 319.32 91.32 319.05 92.99 317.94 94.18 Z" />
<path fill="#a49e38" opacity="0.33" d=" M 835.12 92.83 C 836.19 94.07 836.38 95.77 835.90 97.31 C 834.59 96.15 834.45 94.36 835.12 92.83 Z" />
<path fill="#a49e38" opacity="0.33" d=" M 316.98 101.11 C 316.20 99.34 316.28 97.19 317.88 95.89 C 318.33 97.69 317.93 99.54 316.98 101.11 Z" />
<path fill="#a49e38" opacity="0.33" d=" M 836.02 98.74 C 837.29 99.83 837.52 101.57 836.95 103.09 C 835.73 101.96 835.50 100.27 836.02 98.74 Z" />
<path fill="#a49e38" opacity="0.33" d=" M 162.00 125.29 C 161.58 123.96 161.91 122.85 163.00 121.95 C 163.55 123.34 163.22 124.45 162.00 125.29 Z" />
<path fill="#a49e38" opacity="0.33" d=" M 161.04 129.31 C 160.59 127.93 160.95 126.82 162.13 125.98 C 162.57 127.35 162.20 128.46 161.04 129.31 Z" />
<path fill="#a49e38" opacity="0.33" d=" M 159.81 133.92 C 159.17 132.47 160.13 131.02 161.09 129.99 C 161.39 131.36 161.55 133.48 159.81 133.92 Z" />
<path fill="#a49e38" opacity="0.33" d=" M 158.87 137.88 C 158.41 136.54 158.81 135.57 160.07 134.98 C 160.54 136.33 160.14 137.29 158.87 137.88 Z" />
<path fill="#a49e38" opacity="0.33" d=" M 157.95 142.02 C 157.44 140.56 157.83 139.55 159.15 138.98 C 159.52 140.25 159.12 141.26 157.95 142.02 Z" />
<path fill="#a49e38" opacity="0.33" d=" M 855.05 205.89 C 856.15 206.74 856.50 207.84 856.11 209.18 C 854.86 208.37 854.51 207.28 855.05 205.89 Z" />
<path fill="#a49e38" opacity="0.33" d=" M 855.90 210.92 C 857.10 211.65 857.52 212.71 857.15 214.10 C 855.91 213.36 855.49 212.30 855.90 210.92 Z" />
<path fill="#a49e38" opacity="0.33" d=" M 857.15 215.82 C 858.29 216.65 858.64 217.70 858.20 218.97 C 856.96 218.31 856.61 217.26 857.15 215.82 Z" />
<path fill="#a49e38" opacity="0.33" d=" M 857.87 220.04 C 859.55 220.55 859.46 222.63 859.02 223.99 C 858.15 222.91 857.15 221.46 857.87 220.04 Z" />
<path fill="#a49e38" opacity="0.33" d=" M 858.82 225.02 C 860.11 225.58 860.53 226.60 860.09 228.06 C 858.88 227.33 858.46 226.32 858.82 225.02 Z" />
<path fill="#a49e38" opacity="0.33" d=" M 859.93 229.81 C 861.17 230.63 861.50 231.73 860.93 233.13 C 859.86 232.24 859.52 231.14 859.93 229.81 Z" />
<path fill="#a49e38" opacity="0.33" d=" M 126.75 264.09 C 126.25 262.73 126.61 261.65 127.83 260.86 C 128.26 262.21 127.90 263.29 126.75 264.09 Z" />
<path fill="#a49e38" opacity="0.33" d=" M 125.75 268.03 C 125.32 266.66 125.71 265.60 126.91 264.84 C 127.35 266.19 126.96 267.25 125.75 268.03 Z" />
<path fill="#a49e38" opacity="0.33" d=" M 124.65 271.92 C 124.26 270.64 124.67 269.64 125.87 268.92 C 126.34 270.37 125.93 271.37 124.65 271.92 Z" />
<path fill="#a49e38" opacity="0.33" d=" M 122.96 280.09 C 122.40 278.63 122.77 277.55 124.06 276.85 C 124.40 278.16 124.04 279.24 122.96 280.09 Z" />
<path fill="#a49e38" opacity="0.33" d=" M 121.94 283.99 C 121.41 282.53 121.82 281.53 123.16 280.98 C 123.50 282.24 123.09 283.24 121.94 283.99 Z" />
<path fill="#a49e38" opacity="0.33" d=" M 120.90 288.01 C 120.40 286.54 120.81 285.52 122.13 284.96 C 122.47 286.23 122.06 287.25 120.90 288.01 Z" />
<path fill="#a49e38" opacity="0.33" d=" M 120.07 291.15 C 120.31 290.59 120.79 289.46 121.03 288.89 C 120.79 289.46 120.31 290.59 120.07 291.15 Z" />
<path fill="#a49e38" opacity="0.33" d=" M 119.07 295.27 C 118.64 293.89 119.02 292.79 120.21 291.96 C 120.63 293.35 120.25 294.46 119.07 295.27 Z" />
<path fill="#a49e38" opacity="0.33" d=" M 118.05 299.25 C 117.60 297.87 117.98 296.77 119.18 295.96 C 119.60 297.33 119.22 298.43 118.05 299.25 Z" />
<path fill="#a49e38" opacity="0.33" d=" M 116.96 303.17 C 116.50 301.79 116.90 300.72 118.16 299.97 C 118.53 301.32 118.14 302.39 116.96 303.17 Z" />
<path fill="#a49e38" opacity="0.33" d=" M 115.99 307.02 C 115.41 305.57 115.80 304.59 117.17 304.07 C 117.52 305.30 117.12 306.29 115.99 307.02 Z" />
</g>
<g id="#3248cfff">
<path fill="#3248cf" opacity="1.00" d=" M 321.99 68.99 C 333.51 69.14 345.03 69.07 356.55 69.32 C 356.41 76.65 357.25 84.02 356.00 91.29 L 355.92 91.77 C 353.63 102.61 353.02 113.81 350.19 124.53 C 350.07 122.35 349.96 120.18 349.89 118.00 C 338.03 118.04 326.16 118.17 314.33 117.16 C 315.24 111.82 316.15 106.47 316.98 101.11 C 317.93 99.54 318.33 97.69 317.88 95.89 C 317.89 95.46 317.92 94.61 317.94 94.18 C 319.05 92.99 319.32 91.32 318.87 89.79 C 318.88 89.38 318.91 88.57 318.92 88.17 C 320.00 86.96 320.19 85.30 319.82 83.78 C 319.89 83.40 320.02 82.63 320.09 82.25 C 321.02 77.88 321.20 73.39 321.99 68.99 Z" />
</g>
<g id="#ff0000ff">
<path fill="#ff0000" opacity="1.00" d=" M 276.28 118.03 L 277.29 117.99 C 280.37 117.94 283.45 117.92 286.53 117.78 C 294.88 117.73 303.23 117.85 311.58 118.10 C 311.94 120.04 312.30 121.99 312.65 123.94 C 312.30 129.22 311.35 134.44 310.62 139.67 C 309.85 144.41 310.41 149.23 309.95 154.00 C 303.11 154.44 296.01 153.09 289.34 154.70 C 284.03 155.14 278.71 155.00 273.40 154.95 C 273.06 152.45 272.55 149.98 272.16 147.50 C 272.02 139.36 274.20 131.48 275.35 123.49 C 275.65 121.67 275.93 119.84 276.28 118.03 Z" />
</g>
</svg>
